# xmcd
#
# Track frame offsets: 
#        150
#        22854
#        44759
#        63222
#        83676
#        101608
#        120396
#        145644
#        174400
#
# Disc length: 2671 seconds
#
# Revision: 0
# Processed by: cddbd v1.5.2PL0 Copyright (c) Steve Scherf et al.
# Submitted via: ExactAudioCopy v1.0b1
#
DISCID=670a6d09
DTITLE=T.S. Monk - House Of Music
DYEAR=1980
DGENRE=Funk
TTITLE0=Bon Bon Vie
TTITLE1=Candidate For Love
TTITLE2=Hot Night In The City
TTITLE3=Last Of The Wicked Romancers
TTITLE4=Can't Keep My Hands To Myself
TTITLE5=Stay Free Of His Love
TTITLE6=House Of Music
TTITLE7=Bon Bon Vie (Paul Simpson's Best Looking Sound Edit)
TTITLE8=Candidate For Love (John Morales 2009 Reconstruction)
EXTD=
EXTT0=
EXTT1=
EXTT2=
EXTT3=
EXTT4=
EXTT5=
EXTT6=
EXTT7=
EXTT8=
PLAYORDER=
